# xmcd CD database file
#
# Track frame offsets:
#	150
#	15353
#	28605
#	44454
#	57383
#	70963
#	85228
#	98706
#	110986
#	125698
#	138712
#	152394
#	165205
#	178552
#	190492
#	203951
#	216906
#	229677
#	249010
#	268297
#	286924
#	307549
#	320431
#	333967
#
# Disc length: 4706 seconds
#
# Revision: 0
# Processed by: cddbd v1.5PL3 Copyright (c) Steve Scherf et al.
# Submitted via: CDex 1.50
#
DISCID=50126018
DTITLE=Charlie Ventura - Charlie Comes On
DYEAR=1900
DGENRE=Jazz
TTITLE0=Ghost Of A Chance
TTITLE1=Tea For Two
TTITLE2=C.V. Jump
TTITLE3=I Surrender, Dear
TTITLE4=Out You Go
TTITLE5=C.V. Jam
TTITLE6=Tammy's Dream
TTITLE7=Let's Jump For Rita
TTITLE8=Charlie Comes On
TTITLE9=Good Deal
TTITLE10=Ever So Thoughtful
TTITLE11=Jack Pot
TTITLE12=Dark Eyes
TTITLE13=The Man I Love Pr 1
TTITLE14=The Man I Love Pr 2
TTITLE15=Stompin' At The Savoy Pr 1
TTITLE16=Stompin' At The Savoy Pr 2
TTITLE17=Who's Sorry Now?
TTITLE18=Nobody Knows The Trouble I've Seen
TTITLE19=The Man I Love
TTITLE20=S'Wonderful
TTITLE21=Charlie Boy
TTITLE22=I Don't Know Why I Love You Like I Do
TTITLE23=Chopin's Minute Waltz
EXTD=
EXTT0=
EXTT1=
EXTT2=
EXTT3=
EXTT4=
EXTT5=
EXTT6=
EXTT7=
EXTT8=
EXTT9=
EXTT10=
EXTT11=
EXTT12=
EXTT13=
EXTT14=
EXTT15=
EXTT16=
EXTT17=
EXTT18=
EXTT19=
EXTT20=
EXTT21=
EXTT22=
EXTT23=
PLAYORDER=
